{
	"asset":{
		"generator":"Khronos glTF Blender I/O v3.6.28",
		"version":"2.0"
	},
	"scene":0,
	"scenes":[
		{
			"name":"Scene",
			"nodes":[
				0,
				1,
				2,
				3,
				4,
				5,
				6,
				7,
				8
			]
		}
	],
	"nodes":[
		{
			"mesh":0,
			"name":"h",
			"scale":[
				0,
				0,
				0
			],
			"translation":[
				0,
				0.023235589265823364,
				4.61932897567749
			]
		},
		{
			"mesh":1,
			"name":"2_Cylinder-Cone",
			"scale":[
				1,
				0.5,
				1
			],
			"translation":[
				0,
				0.5,
				0
			]
		},
		{
			"mesh":2,
			"name":"3_Cone",
			"rotation":[
				-1,
				0,
				0,
				7.549790126404332e-08
			],
			"scale":[
				1,
				0.5,
				1
			],
			"translation":[
				0,
				0.5,
				-3
			]
		},
		{
			"mesh":3,
			"name":"1_HalfSphere",
			"translation":[
				0,
				0,
				3
			]
		},
		{
			"mesh":4,
			"name":"4_Screen",
			"scale":[
				1.2000000476837158,
				1,
				5
			],
			"translation":[
				0,
				0.004999999888241291,
				0
			]
		},
		{
			"mesh":5,
			"name":"Indicator1_H",
			"scale":[
				10,
				0,
				10
			],
			"translation":[
				0,
				0,
				4.500129699707031
			]
		},
		{
			"mesh":6,
			"name":"Indicator2_Sphere",
			"rotation":[
				-0.7071068286895752,
				0,
				0,
				0.7071068286895752
			],
			"scale":[
				10,
				1,
				10
			],
			"translation":[
				0,
				0.0017176233232021332,
				3
			]
		},
		{
			"mesh":7,
			"name":"Indicator3_C-C",
			"rotation":[
				-0.44721361994743347,
				0,
				0,
				0.8944272398948669
			],
			"scale":[
				10,
				0,
				10
			],
			"translation":[
				0,
				0,
				-3
			]
		},
		{
			"mesh":8,
			"name":"Indicator4_Cone",
			"rotation":[
				0.5,
				-0.5,
				0.5,
				0.5
			],
			"scale":[
				10,
				1,
				10
			]
		}
	],
	"animations":[
		{
			"channels":[
				{
					"sampler":0,
					"target":{
						"node":0,
						"path":"translation"
					}
				},
				{
					"sampler":1,
					"target":{
						"node":0,
						"path":"rotation"
					}
				},
				{
					"sampler":2,
					"target":{
						"node":0,
						"path":"scale"
					}
				},
				{
					"sampler":3,
					"target":{
						"node":4,
						"path":"translation"
					}
				},
				{
					"sampler":4,
					"target":{
						"node":4,
						"path":"rotation"
					}
				},
				{
					"sampler":5,
					"target":{
						"node":4,
						"path":"scale"
					}
				},
				{
					"sampler":6,
					"target":{
						"node":5,
						"path":"scale"
					}
				},
				{
					"sampler":7,
					"target":{
						"node":6,
						"path":"translation"
					}
				},
				{
					"sampler":8,
					"target":{
						"node":6,
						"path":"rotation"
					}
				},
				{
					"sampler":9,
					"target":{
						"node":6,
						"path":"scale"
					}
				},
				{
					"sampler":10,
					"target":{
						"node":7,
						"path":"translation"
					}
				},
				{
					"sampler":11,
					"target":{
						"node":7,
						"path":"rotation"
					}
				},
				{
					"sampler":12,
					"target":{
						"node":7,
						"path":"scale"
					}
				},
				{
					"sampler":13,
					"target":{
						"node":8,
						"path":"translation"
					}
				},
				{
					"sampler":14,
					"target":{
						"node":8,
						"path":"rotation"
					}
				},
				{
					"sampler":15,
					"target":{
						"node":8,
						"path":"scale"
					}
				}
			],
			"name":"Animation",
			"samplers":[
				{
					"input":33,
					"interpolation":"LINEAR",
					"output":34
				},
				{
					"input":33,
					"interpolation":"LINEAR",
					"output":35
				},
				{
					"input":33,
					"interpolation":"LINEAR",
					"output":36
				},
				{
					"input":33,
					"interpolation":"LINEAR",
					"output":37
				},
				{
					"input":38,
					"interpolation":"STEP",
					"output":39
				},
				{
					"input":38,
					"interpolation":"STEP",
					"output":40
				},
				{
					"input":33,
					"interpolation":"LINEAR",
					"output":41
				},
				{
					"input":33,
					"interpolation":"LINEAR",
					"output":42
				},
				{
					"input":33,
					"interpolation":"LINEAR",
					"output":43
				},
				{
					"input":33,
					"interpolation":"LINEAR",
					"output":44
				},
				{
					"input":33,
					"interpolation":"LINEAR",
					"output":45
				},
				{
					"input":33,
					"interpolation":"LINEAR",
					"output":46
				},
				{
					"input":33,
					"interpolation":"LINEAR",
					"output":47
				},
				{
					"input":33,
					"interpolation":"LINEAR",
					"output":48
				},
				{
					"input":38,
					"interpolation":"STEP",
					"output":49
				},
				{
					"input":38,
					"interpolation":"STEP",
					"output":50
				}
			]
		}
	],
	"materials":[
		{
			"doubleSided":true,
			"name":"Indicator",
			"pbrMetallicRoughness":{
				"baseColorFactor":[
					0,
					0,
					0,
					1
				],
				"metallicFactor":0,
				"roughnessFactor":0.5
			}
		},
		{
			"alphaMode":"BLEND",
			"doubleSided":true,
			"name":"TransparentBody",
			"pbrMetallicRoughness":{
				"baseColorFactor":[
					0.004580213222652674,
					0,
					0.8000000715255737,
					0.4000000059604645
				],
				"metallicFactor":0,
				"roughnessFactor":0.5
			}
		},
		{
			"doubleSided":true,
			"name":"Screening",
			"pbrMetallicRoughness":{
				"baseColorFactor":[
					0.9423338174819946,
					1,
					0.44620105624198914,
					1
				],
				"metallicFactor":0,
				"roughnessFactor":0.5
			}
		}
	],
	"meshes":[
		{
			"name":"Plane.001",
			"primitives":[
				{
					"attributes":{
						"POSITION":0,
						"NORMAL":1,
						"TEXCOORD_0":2
					},
					"indices":3,
					"material":0
				}
			]
		},
		{
			"name":"Cylinder",
			"primitives":[
				{
					"attributes":{
						"POSITION":4,
						"NORMAL":5,
						"TEXCOORD_0":6
					},
					"indices":7,
					"material":1
				}
			]
		},
		{
			"name":"Cone",
			"primitives":[
				{
					"attributes":{
						"POSITION":8,
						"NORMAL":9,
						"TEXCOORD_0":10
					},
					"indices":11,
					"material":1
				}
			]
		},
		{
			"name":"Sphere",
			"primitives":[
				{
					"attributes":{
						"POSITION":12,
						"NORMAL":13,
						"TEXCOORD_0":14
					},
					"indices":15,
					"material":1
				}
			]
		},
		{
			"name":"Plane",
			"primitives":[
				{
					"attributes":{
						"POSITION":16,
						"NORMAL":17,
						"TEXCOORD_0":18
					},
					"indices":19,
					"material":2
				}
			]
		},
		{
			"name":"Cylinder.001",
			"primitives":[
				{
					"attributes":{
						"POSITION":20,
						"NORMAL":21,
						"TEXCOORD_0":22
					},
					"indices":23,
					"material":0
				}
			]
		},
		{
			"name":"Cylinder.006",
			"primitives":[
				{
					"attributes":{
						"POSITION":24,
						"NORMAL":25,
						"TEXCOORD_0":26
					},
					"indices":23,
					"material":0
				}
			]
		},
		{
			"name":"Cylinder.007",
			"primitives":[
				{
					"attributes":{
						"POSITION":27,
						"NORMAL":28,
						"TEXCOORD_0":29
					},
					"indices":23,
					"material":0
				}
			]
		},
		{
			"name":"Cylinder.008",
			"primitives":[
				{
					"attributes":{
						"POSITION":30,
						"NORMAL":31,
						"TEXCOORD_0":32
					},
					"indices":23,
					"material":0
				}
			]
		}
	],
	"accessors":[
		{
			"bufferView":0,
			"componentType":5126,
			"count":32924,
			"max":[
				0.5692063570022583,
				0.0999874472618103,
				0.5042098164558411
			],
			"min":[
				-0.46544718742370605,
				-0.10001257061958313,
				-0.6443051099777222
			],
			"type":"VEC3"
		},
		{
			"bufferView":1,
			"componentType":5126,
			"count":32924,
			"type":"VEC3"
		},
		{
			"bufferView":2,
			"componentType":5126,
			"count":32924,
			"type":"VEC2"
		},
		{
			"bufferView":3,
			"componentType":5123,
			"count":171294,
			"type":"SCALAR"
		},
		{
			"bufferView":4,
			"componentType":5126,
			"count":289,
			"max":[
				1,
				1.0022000074386597,
				1
			],
			"min":[
				-1,
				-1,
				-1
			],
			"type":"VEC3"
		},
		{
			"bufferView":5,
			"componentType":5126,
			"count":289,
			"type":"VEC3"
		},
		{
			"bufferView":6,
			"componentType":5126,
			"count":289,
			"type":"VEC2"
		},
		{
			"bufferView":7,
			"componentType":5123,
			"count":672,
			"type":"SCALAR"
		},
		{
			"bufferView":8,
			"componentType":5126,
			"count":256,
			"max":[
				1,
				1,
				1
			],
			"min":[
				-1,
				-1.0019999742507935,
				-1
			],
			"type":"VEC3"
		},
		{
			"bufferView":9,
			"componentType":5126,
			"count":256,
			"type":"VEC3"
		},
		{
			"bufferView":10,
			"componentType":5126,
			"count":256,
			"type":"VEC2"
		},
		{
			"bufferView":11,
			"componentType":5123,
			"count":378,
			"type":"SCALAR"
		},
		{
			"bufferView":12,
			"componentType":5126,
			"count":1024,
			"max":[
				0.9999997019767761,
				1,
				0.9999993443489075
			],
			"min":[
				-0.9999990463256836,
				0,
				-1.0000007152557373
			],
			"type":"VEC3"
		},
		{
			"bufferView":13,
			"componentType":5126,
			"count":1024,
			"type":"VEC3"
		},
		{
			"bufferView":14,
			"componentType":5126,
			"count":1024,
			"type":"VEC2"
		},
		{
			"bufferView":15,
			"componentType":5123,
			"count":1530,
			"type":"SCALAR"
		},
		{
			"bufferView":16,
			"componentType":5126,
			"count":4,
			"max":[
				1,
				0,
				1
			],
			"min":[
				-1,
				0,
				-1
			],
			"type":"VEC3"
		},
		{
			"bufferView":17,
			"componentType":5126,
			"count":4,
			"type":"VEC3"
		},
		{
			"bufferView":18,
			"componentType":5126,
			"count":4,
			"type":"VEC2"
		},
		{
			"bufferView":19,
			"componentType":5123,
			"count":6,
			"type":"SCALAR"
		},
		{
			"bufferView":20,
			"componentType":5126,
			"count":193,
			"max":[
				0.0010000000474974513,
				1,
				0.0010000000474974513
			],
			"min":[
				-0.0010000000474974513,
				0,
				-0.0010000000474974513
			],
			"type":"VEC3"
		},
		{
			"bufferView":21,
			"componentType":5126,
			"count":193,
			"type":"VEC3"
		},
		{
			"bufferView":22,
			"componentType":5126,
			"count":193,
			"type":"VEC2"
		},
		{
			"bufferView":23,
			"componentType":5123,
			"count":378,
			"type":"SCALAR"
		},
		{
			"bufferView":24,
			"componentType":5126,
			"count":193,
			"max":[
				0.0010000000474974513,
				1,
				0.0010000000474974513
			],
			"min":[
				-0.0010000000474974513,
				0,
				-0.0010000000474974513
			],
			"type":"VEC3"
		},
		{
			"bufferView":25,
			"componentType":5126,
			"count":193,
			"type":"VEC3"
		},
		{
			"bufferView":26,
			"componentType":5126,
			"count":193,
			"type":"VEC2"
		},
		{
			"bufferView":27,
			"componentType":5126,
			"count":193,
			"max":[
				0.0010000000474974513,
				1,
				0.0010000000474974513
			],
			"min":[
				-0.0010000000474974513,
				0,
				-0.0010000000474974513
			],
			"type":"VEC3"
		},
		{
			"bufferView":28,
			"componentType":5126,
			"count":193,
			"type":"VEC3"
		},
		{
			"bufferView":29,
			"componentType":5126,
			"count":193,
			"type":"VEC2"
		},
		{
			"bufferView":30,
			"componentType":5126,
			"count":193,
			"max":[
				0.0010000000474974513,
				1,
				0.0010000000474974513
			],
			"min":[
				-0.0010000000474974513,
				0,
				-0.0010000000474974513
			],
			"type":"VEC3"
		},
		{
			"bufferView":31,
			"componentType":5126,
			"count":193,
			"type":"VEC3"
		},
		{
			"bufferView":32,
			"componentType":5126,
			"count":193,
			"type":"VEC2"
		},
		{
			"bufferView":33,
			"componentType":5126,
			"count":240,
			"max":[
				10
			],
			"min":[
				0.041666666666666664
			],
			"type":"SCALAR"
		},
		{
			"bufferView":34,
			"componentType":5126,
			"count":240,
			"type":"VEC3"
		},
		{
			"bufferView":35,
			"componentType":5126,
			"count":240,
			"type":"VEC4"
		},
		{
			"bufferView":36,
			"componentType":5126,
			"count":240,
			"type":"VEC3"
		},
		{
			"bufferView":37,
			"componentType":5126,
			"count":240,
			"type":"VEC3"
		},
		{
			"bufferView":38,
			"componentType":5126,
			"count":2,
			"max":[
				10
			],
			"min":[
				0.041666666666666664
			],
			"type":"SCALAR"
		},
		{
			"bufferView":39,
			"componentType":5126,
			"count":2,
			"type":"VEC4"
		},
		{
			"bufferView":40,
			"componentType":5126,
			"count":2,
			"type":"VEC3"
		},
		{
			"bufferView":41,
			"componentType":5126,
			"count":240,
			"type":"VEC3"
		},
		{
			"bufferView":42,
			"componentType":5126,
			"count":240,
			"type":"VEC3"
		},
		{
			"bufferView":43,
			"componentType":5126,
			"count":240,
			"type":"VEC4"
		},
		{
			"bufferView":44,
			"componentType":5126,
			"count":240,
			"type":"VEC3"
		},
		{
			"bufferView":45,
			"componentType":5126,
			"count":240,
			"type":"VEC3"
		},
		{
			"bufferView":46,
			"componentType":5126,
			"count":240,
			"type":"VEC4"
		},
		{
			"bufferView":47,
			"componentType":5126,
			"count":240,
			"type":"VEC3"
		},
		{
			"bufferView":48,
			"componentType":5126,
			"count":240,
			"type":"VEC3"
		},
		{
			"bufferView":49,
			"componentType":5126,
			"count":2,
			"type":"VEC4"
		},
		{
			"bufferView":50,
			"componentType":5126,
			"count":2,
			"type":"VEC3"
		}
	],
	"bufferViews":[
		{
			"buffer":0,
			"byteLength":395088,
			"byteOffset":0,
			"target":34962
		},
		{
			"buffer":0,
			"byteLength":395088,
			"byteOffset":395088,
			"target":34962
		},
		{
			"buffer":0,
			"byteLength":263392,
			"byteOffset":790176,
			"target":34962
		},
		{
			"buffer":0,
			"byteLength":342588,
			"byteOffset":1053568,
			"target":34963
		},
		{
			"buffer":0,
			"byteLength":3468,
			"byteOffset":1396156,
			"target":34962
		},
		{
			"buffer":0,
			"byteLength":3468,
			"byteOffset":1399624,
			"target":34962
		},
		{
			"buffer":0,
			"byteLength":2312,
			"byteOffset":1403092,
			"target":34962
		},
		{
			"buffer":0,
			"byteLength":1344,
			"byteOffset":1405404,
			"target":34963
		},
		{
			"buffer":0,
			"byteLength":3072,
			"byteOffset":1406748,
			"target":34962
		},
		{
			"buffer":0,
			"byteLength":3072,
			"byteOffset":1409820,
			"target":34962
		},
		{
			"buffer":0,
			"byteLength":2048,
			"byteOffset":1412892,
			"target":34962
		},
		{
			"buffer":0,
			"byteLength":756,
			"byteOffset":1414940,
			"target":34963
		},
		{
			"buffer":0,
			"byteLength":12288,
			"byteOffset":1415696,
			"target":34962
		},
		{
			"buffer":0,
			"byteLength":12288,
			"byteOffset":1427984,
			"target":34962
		},
		{
			"buffer":0,
			"byteLength":8192,
			"byteOffset":1440272,
			"target":34962
		},
		{
			"buffer":0,
			"byteLength":3060,
			"byteOffset":1448464,
			"target":34963
		},
		{
			"buffer":0,
			"byteLength":48,
			"byteOffset":1451524,
			"target":34962
		},
		{
			"buffer":0,
			"byteLength":48,
			"byteOffset":1451572,
			"target":34962
		},
		{
			"buffer":0,
			"byteLength":32,
			"byteOffset":1451620,
			"target":34962
		},
		{
			"buffer":0,
			"byteLength":12,
			"byteOffset":1451652,
			"target":34963
		},
		{
			"buffer":0,
			"byteLength":2316,
			"byteOffset":1451664,
			"target":34962
		},
		{
			"buffer":0,
			"byteLength":2316,
			"byteOffset":1453980,
			"target":34962
		},
		{
			"buffer":0,
			"byteLength":1544,
			"byteOffset":1456296,
			"target":34962
		},
		{
			"buffer":0,
			"byteLength":756,
			"byteOffset":1457840,
			"target":34963
		},
		{
			"buffer":0,
			"byteLength":2316,
			"byteOffset":1458596,
			"target":34962
		},
		{
			"buffer":0,
			"byteLength":2316,
			"byteOffset":1460912,
			"target":34962
		},
		{
			"buffer":0,
			"byteLength":1544,
			"byteOffset":1463228,
			"target":34962
		},
		{
			"buffer":0,
			"byteLength":2316,
			"byteOffset":1464772,
			"target":34962
		},
		{
			"buffer":0,
			"byteLength":2316,
			"byteOffset":1467088,
			"target":34962
		},
		{
			"buffer":0,
			"byteLength":1544,
			"byteOffset":1469404,
			"target":34962
		},
		{
			"buffer":0,
			"byteLength":2316,
			"byteOffset":1470948,
			"target":34962
		},
		{
			"buffer":0,
			"byteLength":2316,
			"byteOffset":1473264,
			"target":34962
		},
		{
			"buffer":0,
			"byteLength":1544,
			"byteOffset":1475580,
			"target":34962
		},
		{
			"buffer":0,
			"byteLength":960,
			"byteOffset":1477124
		},
		{
			"buffer":0,
			"byteLength":2880,
			"byteOffset":1478084
		},
		{
			"buffer":0,
			"byteLength":3840,
			"byteOffset":1480964
		},
		{
			"buffer":0,
			"byteLength":2880,
			"byteOffset":1484804
		},
		{
			"buffer":0,
			"byteLength":2880,
			"byteOffset":1487684
		},
		{
			"buffer":0,
			"byteLength":8,
			"byteOffset":1490564
		},
		{
			"buffer":0,
			"byteLength":32,
			"byteOffset":1490572
		},
		{
			"buffer":0,
			"byteLength":24,
			"byteOffset":1490604
		},
		{
			"buffer":0,
			"byteLength":2880,
			"byteOffset":1490628
		},
		{
			"buffer":0,
			"byteLength":2880,
			"byteOffset":1493508
		},
		{
			"buffer":0,
			"byteLength":3840,
			"byteOffset":1496388
		},
		{
			"buffer":0,
			"byteLength":2880,
			"byteOffset":1500228
		},
		{
			"buffer":0,
			"byteLength":2880,
			"byteOffset":1503108
		},
		{
			"buffer":0,
			"byteLength":3840,
			"byteOffset":1505988
		},
		{
			"buffer":0,
			"byteLength":2880,
			"byteOffset":1509828
		},
		{
			"buffer":0,
			"byteLength":2880,
			"byteOffset":1512708
		},
		{
			"buffer":0,
			"byteLength":32,
			"byteOffset":1515588
		},
		{
			"buffer":0,
			"byteLength":24,
			"byteOffset":1515620
		}
	],
	"buffers":[
		{
			"byteLength":1515644,
			"uri":"data:application/octet-stream;base64,"
		}
	]
}
