{
	"asset":{
		"generator":"Khronos glTF Blender I/O v3.6.28",
		"version":"2.0"
	},
	"scene":0,
	"scenes":[
		{
			"name":"Scene",
			"nodes":[
				0,
				1,
				2,
				3
			]
		}
	],
	"nodes":[
		{
			"mesh":0,
			"name":"outerSphere"
		},
		{
			"mesh":1,
			"name":"innerSphere",
			"scale":[
				0.949999988079071,
				0.949999988079071,
				0.949999988079071
			]
		},
		{
			"name":"Vert.001"
		},
		{
			"mesh":2,
			"name":"outerSphere.001"
		}
	],
	"animations":[
		{
			"channels":[
				{
					"sampler":0,
					"target":{
						"node":3,
						"path":"translation"
					}
				},
				{
					"sampler":1,
					"target":{
						"node":3,
						"path":"rotation"
					}
				},
				{
					"sampler":2,
					"target":{
						"node":3,
						"path":"scale"
					}
				}
			],
			"name":"Animation",
			"samplers":[
				{
					"input":24,
					"interpolation":"LINEAR",
					"output":25
				},
				{
					"input":26,
					"interpolation":"STEP",
					"output":27
				},
				{
					"input":24,
					"interpolation":"LINEAR",
					"output":28
				}
			]
		}
	],
	"materials":[
		{
			"doubleSided":true,
			"name":"Material.001",
			"pbrMetallicRoughness":{
				"baseColorTexture":{
					"index":0
				},
				"metallicFactor":0,
				"roughnessFactor":0.5
			}
		},
		{
			"doubleSided":true,
			"name":"Material.003",
			"pbrMetallicRoughness":{
				"metallicFactor":0,
				"roughnessFactor":0.5
			}
		},
		{
			"doubleSided":true,
			"name":"Material.002",
			"pbrMetallicRoughness":{
				"baseColorTexture":{
					"index":1
				},
				"metallicFactor":0,
				"roughnessFactor":0.5
			}
		}
	],
	"meshes":[
		{
			"name":"Icosphere",
			"primitives":[
				{
					"attributes":{
						"POSITION":0,
						"NORMAL":1,
						"TEXCOORD_0":2
					},
					"indices":3,
					"material":0
				},
				{
					"attributes":{
						"POSITION":4,
						"NORMAL":5,
						"TEXCOORD_0":6
					},
					"indices":7,
					"material":1
				}
			]
		},
		{
			"name":"Icosphere.002",
			"primitives":[
				{
					"attributes":{
						"POSITION":8,
						"NORMAL":9,
						"TEXCOORD_0":10
					},
					"indices":11,
					"material":2
				}
			]
		},
		{
			"name":"Icosphere.003",
			"primitives":[
				{
					"attributes":{
						"POSITION":12,
						"NORMAL":13,
						"TEXCOORD_0":14
					},
					"indices":15,
					"material":0
				},
				{
					"attributes":{
						"POSITION":16,
						"NORMAL":17,
						"TEXCOORD_0":18
					},
					"indices":19,
					"material":2
				},
				{
					"attributes":{
						"POSITION":20,
						"NORMAL":21,
						"TEXCOORD_0":22
					},
					"indices":23,
					"material":1
				}
			]
		}
	],
	"textures":[
		{
			"sampler":0,
			"source":0
		},
		{
			"sampler":0,
			"source":1
		}
	],
	"images":[
		{
			"bufferView":4,
			"mimeType":"image/jpeg",
			"name":"AdobeStock_330399167_Preview"
		},
		{
			"bufferView":13,
			"mimeType":"image/jpeg",
			"name":"AdobeStock_320521774_Preview"
		}
	],
	"accessors":[
		{
			"bufferView":0,
			"componentType":5126,
			"count":729,
			"max":[
				1,
				1,
				0.9999999403953552
			],
			"min":[
				-0.9999999403953552,
				-1,
				-0.9999999403953552
			],
			"type":"VEC3"
		},
		{
			"bufferView":1,
			"componentType":5126,
			"count":729,
			"type":"VEC3"
		},
		{
			"bufferView":2,
			"componentType":5126,
			"count":729,
			"type":"VEC2"
		},
		{
			"bufferView":3,
			"componentType":5123,
			"count":3837,
			"type":"SCALAR"
		},
		{
			"bufferView":5,
			"componentType":5126,
			"count":6,
			"max":[
				0.3896734416484833,
				0.9679490327835083,
				0.1265178918838501
			],
			"min":[
				0.23858967423439026,
				0.8749054074287415,
				0
			],
			"type":"VEC3"
		},
		{
			"bufferView":6,
			"componentType":5126,
			"count":6,
			"type":"VEC3"
		},
		{
			"bufferView":7,
			"componentType":5126,
			"count":6,
			"type":"VEC2"
		},
		{
			"bufferView":8,
			"componentType":5123,
			"count":18,
			"type":"SCALAR"
		},
		{
			"bufferView":9,
			"componentType":5126,
			"count":738,
			"max":[
				1,
				1,
				0.9999999403953552
			],
			"min":[
				-0.9999999403953552,
				-1,
				-0.9999999403953552
			],
			"type":"VEC3"
		},
		{
			"bufferView":10,
			"componentType":5126,
			"count":738,
			"type":"VEC3"
		},
		{
			"bufferView":11,
			"componentType":5126,
			"count":738,
			"type":"VEC2"
		},
		{
			"bufferView":12,
			"componentType":5123,
			"count":3846,
			"type":"SCALAR"
		},
		{
			"bufferView":14,
			"componentType":5126,
			"count":4,
			"max":[
				0.3896734416484833,
				0.9679490327835083,
				0.1265178918838501
			],
			"min":[
				0.2511470317840576,
				0.920953094959259,
				0
			],
			"type":"VEC3"
		},
		{
			"bufferView":15,
			"componentType":5126,
			"count":4,
			"type":"VEC3"
		},
		{
			"bufferView":16,
			"componentType":5126,
			"count":4,
			"type":"VEC2"
		},
		{
			"bufferView":17,
			"componentType":5123,
			"count":9,
			"type":"SCALAR"
		},
		{
			"bufferView":18,
			"componentType":5126,
			"count":4,
			"max":[
				0.37018975615501404,
				0.9195515513420105,
				0.12019199877977371
			],
			"min":[
				0,
				0,
				0
			],
			"type":"VEC3"
		},
		{
			"bufferView":19,
			"componentType":5126,
			"count":4,
			"type":"VEC3"
		},
		{
			"bufferView":20,
			"componentType":5126,
			"count":4,
			"type":"VEC2"
		},
		{
			"bufferView":21,
			"componentType":5123,
			"count":9,
			"type":"SCALAR"
		},
		{
			"bufferView":22,
			"componentType":5126,
			"count":6,
			"max":[
				0.3896734416484833,
				0.9679490327835083,
				0.1265178918838501
			],
			"min":[
				0.23858967423439026,
				0.8749054074287415,
				0
			],
			"type":"VEC3"
		},
		{
			"bufferView":23,
			"componentType":5126,
			"count":6,
			"type":"VEC3"
		},
		{
			"bufferView":24,
			"componentType":5126,
			"count":6,
			"type":"VEC2"
		},
		{
			"bufferView":25,
			"componentType":5123,
			"count":18,
			"type":"SCALAR"
		},
		{
			"bufferView":26,
			"componentType":5126,
			"count":200,
			"max":[
				8.333333333333334
			],
			"min":[
				0.041666666666666664
			],
			"type":"SCALAR"
		},
		{
			"bufferView":27,
			"componentType":5126,
			"count":200,
			"type":"VEC3"
		},
		{
			"bufferView":28,
			"componentType":5126,
			"count":2,
			"max":[
				8.333333333333334
			],
			"min":[
				0.041666666666666664
			],
			"type":"SCALAR"
		},
		{
			"bufferView":29,
			"componentType":5126,
			"count":2,
			"type":"VEC4"
		},
		{
			"bufferView":30,
			"componentType":5126,
			"count":200,
			"type":"VEC3"
		}
	],
	"bufferViews":[
		{
			"buffer":0,
			"byteLength":8748,
			"byteOffset":0,
			"target":34962
		},
		{
			"buffer":0,
			"byteLength":8748,
			"byteOffset":8748,
			"target":34962
		},
		{
			"buffer":0,
			"byteLength":5832,
			"byteOffset":17496,
			"target":34962
		},
		{
			"buffer":0,
			"byteLength":7674,
			"byteOffset":23328,
			"target":34963
		},
		{
			"buffer":0,
			"byteLength":261922,
			"byteOffset":31004
		},
		{
			"buffer":0,
			"byteLength":72,
			"byteOffset":292928,
			"target":34962
		},
		{
			"buffer":0,
			"byteLength":72,
			"byteOffset":293000,
			"target":34962
		},
		{
			"buffer":0,
			"byteLength":48,
			"byteOffset":293072,
			"target":34962
		},
		{
			"buffer":0,
			"byteLength":36,
			"byteOffset":293120,
			"target":34963
		},
		{
			"buffer":0,
			"byteLength":8856,
			"byteOffset":293156,
			"target":34962
		},
		{
			"buffer":0,
			"byteLength":8856,
			"byteOffset":302012,
			"target":34962
		},
		{
			"buffer":0,
			"byteLength":5904,
			"byteOffset":310868,
			"target":34962
		},
		{
			"buffer":0,
			"byteLength":7692,
			"byteOffset":316772,
			"target":34963
		},
		{
			"buffer":0,
			"byteLength":75943,
			"byteOffset":324464
		},
		{
			"buffer":0,
			"byteLength":48,
			"byteOffset":400408,
			"target":34962
		},
		{
			"buffer":0,
			"byteLength":48,
			"byteOffset":400456,
			"target":34962
		},
		{
			"buffer":0,
			"byteLength":32,
			"byteOffset":400504,
			"target":34962
		},
		{
			"buffer":0,
			"byteLength":18,
			"byteOffset":400536,
			"target":34963
		},
		{
			"buffer":0,
			"byteLength":48,
			"byteOffset":400556,
			"target":34962
		},
		{
			"buffer":0,
			"byteLength":48,
			"byteOffset":400604,
			"target":34962
		},
		{
			"buffer":0,
			"byteLength":32,
			"byteOffset":400652,
			"target":34962
		},
		{
			"buffer":0,
			"byteLength":18,
			"byteOffset":400684,
			"target":34963
		},
		{
			"buffer":0,
			"byteLength":72,
			"byteOffset":400704,
			"target":34962
		},
		{
			"buffer":0,
			"byteLength":72,
			"byteOffset":400776,
			"target":34962
		},
		{
			"buffer":0,
			"byteLength":48,
			"byteOffset":400848,
			"target":34962
		},
		{
			"buffer":0,
			"byteLength":36,
			"byteOffset":400896,
			"target":34963
		},
		{
			"buffer":0,
			"byteLength":800,
			"byteOffset":400932
		},
		{
			"buffer":0,
			"byteLength":2400,
			"byteOffset":401732
		},
		{
			"buffer":0,
			"byteLength":8,
			"byteOffset":404132
		},
		{
			"buffer":0,
			"byteLength":32,
			"byteOffset":404140
		},
		{
			"buffer":0,
			"byteLength":2400,
			"byteOffset":404172
		}
	],
	"samplers":[
		{
			"magFilter":9729,
			"minFilter":9987
		}
	],
	"buffers":[
		{
			"byteLength":406572,
			"uri":"data:application/octet-stream;base64,"
		}
	]
}
